/* XPM */
static char *msgMailRedirectWindow16[] = {
"16 16 112 2 0 0",
"   c #7D8069",
"!  c #80836B",
"#  c #7A7D66",
"$  c #7B7E67",
"%  c #BBBCAD",
"&  c #D8D8CF",
"'  c #D3D3CA",
"(  c #D4D4CA",
")  c #D3D4CA",
"*  c #D5D5CB",
"+  c #CDCEC2",
",  c #7D7F68",
"-  c #C3C5B6",
".  c #F7F6F5",
"/  c #FDFDFD",
"0  c #FAFAF9",
"1  c #FBFBFA",
"2  c #FBFCFA",
"3  c #F5F5F3",
"4  c #DCDDD4",
"5  c #A1A390",
"6  c #7F816A",
"7  c #D0D1C5",
"8  c #EDECE8",
"9  c #F2EFEF",
":  c #FBF9F9",
";  c #F7F4F6",
"<  c #F6F6F3",
"=  c #FAF6FA",
">  c #F9F9F6",
"?  c #D5D6CB",
"@  c #EBECE6",
"A  c #A0A28E",
"B  c #CCCDC2",
"C  c #F7F8F4",
"D  c #CEE2BB",
"E  c #C3E7AA",
"F  c #E3F4D3",
"G  c #EFF3E7",
"H  c #C2DEA3",
"I  c #F7F5F6",
"J  c #E2E2DB",
"K  c #EFEEEB",
"L  c #EFEFEA",
"M  c #999B88",
"N  c #7E8069",
"O  c #C9CABF",
"P  c #F4F6F0",
"Q  c #D7F0C3",
"R  c #C6F0A6",
"S  c #AAEC82",
"T  c #E8EBDF",
"U  c #69C71E",
"V  c #A5C87E",
"W  c #EEEAEB",
"X  c #F5F5F2",
"Y  c #EEEEE9",
"Z  c #949683",
"[  c #C8C9BD",
"]  c #C1E2AB",
"^  c #8EEC5C",
"_  c #82D856",
"`  c #CFD6BE",
"a  c #94D65C",
"b  c #B9E78E",
"c  c #B2D78C",
"d  c #F6F2F5",
"e  c #EDEEE9",
"f  c #91937F",
"g  c #FAF7FA",
"h  c #DCEBCF",
"i  c #64DB30",
"j  c #76E443",
"k  c #6ED13F",
"l  c #9AE16D",
"m  c #CEF8AD",
"n  c #ACE17A",
"o  c #B5D790",
"p  c #F0EFEE",
"q  c #8F917B",
"r  c #B7B9AA",
"s  c #E3E3DD",
"t  c #CDD5BE",
"u  c #58C924",
"v  c #71EC3F",
"w  c #62E82A",
"x  c #69EA34",
"y  c #69E932",
"z  c #84EF56",
"{  c #9ADF64",
"|  c #B7CF97",
"}  c #908983",
"~  c #757760",
" ! c #686A54",
"!! c #686457",
"#! c #4D9123",
"$! c #68D233",
"%! c #7CE848",
"&! c #61E72C",
"'! c #42E60D",
"(! c #72E941",
")! c #85D248",
"*! c #587F2F",
"+! c #54B91F",
",! c #69C226",
"-! c #77D437",
".! c #91EF62",
"/! c #82CF44",
"0! c #79CE38",
"1! c #8CD251",
"2! c #5BBE12",
"3! c None",
"3!3!3!3!3!3!3!3!3!3!3!3!3!3!3!3!",
"3!3!3!    ! ! ! # # # $ 3!3!3!3!",
"3!3!% & ' ( ) ) ) ' ( * + 3!3!3!",
"3!, - . / 0 1 1 1 0 2 3 4 5 3!3!",
"3!6 7 8 9 : ; < = < > ? @ A 3!3!",
"3!6 B C D E F G H I J K L M 3!3!",
"3!N O P Q R S T U V W X Y Z 3!3!",
"3!# [ 3 ] ^ _ ` a b c d e f 3!3!",
"3!# [ g h i j k l m n o p q 3!3!",
"3!# r s t u v w x y z { | } 3!3!",
"3!3!~  !!!#!$!%!&!'!(!)!*!3!3!3!",
"3!3!3!3!3!3!+!,!-!.!/!3!3!3!3!3!",
"3!3!3!3!3!3!3!3!0!1!3!3!3!3!3!3!",
"3!3!3!3!3!3!3!3!2!3!3!3!3!3!3!3!",
"3!3!3!3!3!3!3!3!3!3!3!3!3!3!3!3!",
"3!3!3!3!3!3!3!3!3!3!3!3!3!3!3!3!"
};
