/* XPM */
static char *msgMailRedirectWindow[] = {
"32 32 247 2 0 0",
"   c #80836B",
"!  c #7A7D66",
"#  c #7C7E68",
"$  c #7F816A",
"%  c #A7AA97",
"&  c #B7B8A8",
"'  c #BABBAB",
"(  c #B6B7A7",
")  c #BBBDAD",
"*  c #AFB19F",
"+  c #91937F",
",  c #ACAE9C",
"-  c #E0E1D7",
".  c #FBFAF9",
"/  c #F3F4F0",
"0  c #F0EFEC",
"1  c #F1F1ED",
"2  c #F5F5F2",
"3  c #F9F9F7",
"4  c #D1D1C6",
"5  c #9FA08E",
"6  c #FFFFFF",
"7  c #FCFDFB",
"8  c #CFD0C4",
"9  c #A0A28E",
":  c #AAAC9A",
";  c #DADBD1",
"<  c #ECEBE8",
"=  c #F6F6F4",
">  c #F7F8F4",
"?  c #DEDDD6",
"@  c #DADBCF",
"A  c #CBCCC0",
"B  c #A2A391",
"C  c #B3B4A2",
"D  c #EDEEE9",
"E  c #F4F3F0",
"F  c #FFFAFF",
"G  c #F8F6F7",
"H  c #E1E1D9",
"I  c #CBCDBF",
"J  c #E9EAE3",
"K  c #A3A592",
"L  c #F3F4EE",
"M  c #E1DFD9",
"N  c #F6F2F6",
"O  c #FEF7FF",
"P  c #F9F3FB",
"Q  c #FAF6FC",
"R  c #ECEDE6",
"S  c #E4E5DD",
"T  c #9D9E8A",
"U  c #EEF1E8",
"V  c #D8E0CA",
"W  c #CFDEBE",
"X  c #D6EBC5",
"Y  c #E2F1D3",
"Z  c #E9F2DE",
"[  c #E9EEDF",
"]  c #DFEACE",
"^  c #EBEDE5",
"_  c #989A88",
"`  c #D8EBC7",
"a  c #B8DD9D",
"b  c #A8DA86",
"c  c #ABE488",
"d  c #C5F2A4",
"e  c #EBF8DC",
"f  c #E1EFCE",
"g  c #95CE5E",
"h  c #A7D179",
"i  c #F3EDF7",
"j  c #DCDAD6",
"k  c #F3F1F1",
"l  c #DCDDD3",
"m  c #9A9C88",
"n  c #E9EDE1",
"o  c #D0EDB9",
"p  c #C6E8AA",
"q  c #B5EB91",
"r  c #A5F177",
"s  c #CDF6B2",
"t  c #69C81C",
"u  c #55B80C",
"v  c #A5C87C",
"w  c #E4DCE3",
"x  c #969884",
"y  c #7D7F68",
"z  c #A4A695",
"{  c #DFF1CF",
"|  c #CCF2B2",
"}  c #D2F7B7",
"~  c #C9F7A7",
" ! c #91E862",
"!! c #A3E07E",
"#! c #EFE5F3",
"$! c #D2DABC",
"%! c #7ACE30",
"&! c #6DCD1F",
"'! c #7DC63C",
"(! c #A0C278",
")! c #E3E4DC",
"*! c #929481",
"+! c #D9E7C9",
",! c #A0E37B",
"-! c #98F068",
".! c #A8F47A",
"/! c #80DC4E",
"0! c #95D270",
"1! c #F0DAF8",
"2! c #CFD0B8",
"3! c #88C84A",
"4! c #ABE276",
"5! c #B8E78B",
"6! c #8ECE56",
"7! c #AFD587",
"8! c #EBEBE5",
"9! c #FAF3FF",
":! c #DBDCD2",
";! c #EEE8EC",
"<! c #E8E2E6",
"=! c #A3DB81",
">! c #74E13F",
"?! c #85EA4E",
"@! c #72DB3F",
"A! c #82D559",
"B! c #CFDFC1",
"C! c #ACCE88",
"D! c #68C828",
"E! c #B3E686",
"F! c #EAFFD5",
"G! c #B2E981",
"H! c #82CB41",
"I! c #AAD181",
"J! c #EEE7EF",
"K! c #F8EAFE",
"L! c #B8DF9B",
"M! c #64D632",
"N! c #73E13D",
"O! c #78E543",
"P! c #66D735",
"Q! c #7BD151",
"R! c #64C933",
"S! c #65CD2D",
"T! c #B2E78B",
"U! c #E4FDCD",
"V! c #D5F9B5",
"W! c #8BC94F",
"X! c #AFD187",
"Y! c #8F917B",
"Z! c #BFE5A3",
"[! c #57D420",
"]! c #60DF2F",
"^! c #85EF51",
"_! c #73E341",
"`! c #72D442",
"a! c #97E16B",
"b! c #B9EF91",
"c! c #BBF292",
"d! c #C3F69E",
"e! c #CFF8AE",
"f! c #83C846",
"g! c #B4D58D",
"h! c #E5E1E3",
"i! c #C9E5B1",
"j! c #5CD228",
"k! c #53E41A",
"l! c #77EE48",
"m! c #79EA48",
"n! c #75E841",
"o! c #90ED5D",
"p! c #87EB55",
"q! c #81E94D",
"r! c #8AEA56",
"s! c #A2F276",
"t! c #AEF385",
"u! c #99DF61",
"v! c #8BCD51",
"w! c #D3F0B0",
"x! c #969386",
"y! c #C9C9BB",
"z! c #C6C4BA",
"{! c #C8C2BC",
"|! c #A4AD8C",
"}! c #60A735",
"~! c #4FC81A",
" # c #6FEB3B",
"!# c #66EB31",
"## c #47E80E",
"$# c #45E50C",
"%# c #52E917",
"&# c #4AE713",
"'# c #AFF585",
"(# c #94D957",
")# c #87C34D",
"*# c #897F7F",
"+# c #6A6C56",
",# c #656852",
"-# c #696757",
".# c #666056",
"/# c #547735",
"0# c #4DA71B",
"1# c #65D82C",
"2# c #68E935",
"3# c #61E82C",
"4# c #57E725",
"5# c #3DE50A",
"6# c #72EB43",
"7# c #A0EC72",
"8# c #8CD34D",
"9# c #53981C",
":# c #5C6642",
";# c #459519",
"<# c #51BA1E",
"=# c #77D444",
"># c #91E65E",
"?# c #95EA62",
"@# c #86E850",
"A# c #60E42C",
"B# c #7FED4F",
"C# c #9AE766",
"D# c #83CF45",
"E# c #64BB1D",
"F# c #45AC18",
"G# c #62C626",
"H# c #7DD039",
"I# c #76D331",
"J# c #76DF3D",
"K# c #82EE52",
"L# c #8CD050",
"M# c #62B71D",
"N# c #42A600",
"O# c #5EC114",
"P# c #92DE5A",
"Q# c #B1F88A",
"R# c #81CE42",
"S# c #5FB618",
"T# c #60C317",
"U# c #9EDF69",
"V# c #B9EF8D",
"W# c #57B313",
"X# c #63C719",
"Y# c #85CE4A",
"Z# c #5BBB15",
"[# c #59BE0E",
"]# c #54B40E",
"^# c None",
"^#^#^#^#^#^#^#^#^#^#^#^#^#^#^#^#^#^#^#^#^#^#^#^#^#^#^#^#^#^#^#^#",
"^#^#^#^#^#^#^#^#^#^#^#^#^#^#^#^#^#^#^#^#^#^#^#^#^#^#^#^#^#^#^#^#",
"^#^#^#^#^#^#^#^#^#^#^#^#^#^#^#^#^#^#^#^#^#^#^#^#^#^#^#^#^#^#^#^#",
"^#^#^#^#^#  !   !               ! ! ! ! ! ! ! # $ ^#^#^#^#^#^#^#",
"^#^#^#^#% & ' ( ( ( ( ( ( ( ( ( ( ( ( ( & ( ( & ) * + ^#^#^#^#^#",
"^#^#^#$ , - . / 0 0 1 1 1 0 0 1 1 0 0 0 1 0 0 2 3 4 5 ^#^#^#^#^#",
"^#^#^#! % - 6 6 6 6 6 6 6 6 6 6 6 6 6 6 6 6 6 6 7 8 9 ^#^#^#^#^#",
"^#^#^#$ : ; < 0 7 . = 2 = = = > > = = 2 / 7 3 ? @ A B ^#^#^#^#^#",
"^#^#^#$ C D E ? 0 F . 2 = = = > G = 2 2 7 . H I J - K ^#^#^#^#^#",
"^#^#^#$ , L 6 M M N 7 O P N L G O Q E 3 6 R 8 ; 6 S T ^#^#^#^#^#",
"^#^#^#$ : 0 6 U V W X Y Z L L [ ] ^ O 7 U ? M 1 6 - _ ^#^#^#^#^#",
"^#^#^#$ : D 6 U ` a b c d e F f g h U i j H k = 6 l m ^#^#^#^#^#",
"^#^#^#$ % D 6 n Y o p q r s 6 f t u v 4 w 1 > 2 6 l x ^#^#^#^#^#",
"^#^#^#y z < 6 [ { | } ~  !!!#!$!%!&!'!(!)!O E E 6 l *!^#^#^#^#^#",
"^#^#^#! z R 6 n +!,!-!.!/!0!1!2!3!4!5!6!7!8!9!2 6 :!+ ^#^#^#^#^#",
"^#^#^#! K 8!6 ;!<!=!>!?!@!A!B!C!D!E!F!G!H!I!J O 6 :!+ ^#^#^#^#^#",
"^#^#^#! K 8!7 J!K!L!M!N!O!P!Q!R!S!T!U!V!4!W!X!R 6 ? Y!^#^#^#^#^#",
"^#^#^#! B 0 6 O 6 Z![!]!^!_!P!`!a!b!c!d!e!4!f!g!6 h!Y!^#^#^#^#^#",
"^#^#^#! 9 1 6 6 6 i!j!k!l!m!n!?!o!p!q!r!s!t!u!v!w!l x!^#^#^#^#^#",
"^#^#^#! *!' y!z!{!|!}!~! #!###$#######%#&#l!'#(#)#|!*#^#^#^#^#^#",
"^#^#^#^#$ +#,#+#-#.#/#0#1#N!2#3#4###5#5#5#6#7#8#9#:#^#^#^#^#^#^#",
"^#^#^#^#^#^#^#^#^#^#^#;#<#=#>#?#@#A#$#&#B#C#D#E#^#^#^#^#^#^#^#^#",
"^#^#^#^#^#^#^#^#^#^#^#^#F#G#H#H#I#J# #K#C#L#M#^#^#^#^#^#^#^#^#^#",
"^#^#^#^#^#^#^#^#^#^#^#^#^#^#^#N#O#P#Q#7#R#S#^#^#^#^#^#^#^#^#^#^#",
"^#^#^#^#^#^#^#^#^#^#^#^#^#^#^#^#T#U#V#L#W#^#^#^#^#^#^#^#^#^#^#^#",
"^#^#^#^#^#^#^#^#^#^#^#^#^#^#^#^#X#D#Y#E#^#^#^#^#^#^#^#^#^#^#^#^#",
"^#^#^#^#^#^#^#^#^#^#^#^#^#^#^#^#O#T#Z#^#^#^#^#^#^#^#^#^#^#^#^#^#",
"^#^#^#^#^#^#^#^#^#^#^#^#^#^#^#^#[#]#^#^#^#^#^#^#^#^#^#^#^#^#^#^#",
"^#^#^#^#^#^#^#^#^#^#^#^#^#^#^#^#^#^#^#^#^#^#^#^#^#^#^#^#^#^#^#^#",
"^#^#^#^#^#^#^#^#^#^#^#^#^#^#^#^#^#^#^#^#^#^#^#^#^#^#^#^#^#^#^#^#",
"^#^#^#^#^#^#^#^#^#^#^#^#^#^#^#^#^#^#^#^#^#^#^#^#^#^#^#^#^#^#^#^#",
"^#^#^#^#^#^#^#^#^#^#^#^#^#^#^#^#^#^#^#^#^#^#^#^#^#^#^#^#^#^#^#^#"
};
