<svg xmlns="http://www.w3.org/2000/svg" width="16" height="16" viewBox="0 0 16 16">
  <path fill="context-fill" fill-opacity="context-fill-opacity" d="m 7.71,5.70 -0.9,1.13 c -0.9,1.03 0.68,2.35 1.53,1.28 l 2.83,-3.44 -2.83,-3.44 c -0.86,-0.98 -2.35,0.26 -1.54,1.28 l 0.97,1.19 c -4.07,0 -5.8,0.05 -6.6,1.67 -0.67,1.73 -0.30,2.61 2.03,4.18 1.11,0.85 2.28,-0.68 1.3,-1.56 -0.95,-0.74 -1.78,-1.16 -1.55,-1.73 0.3,-0.56 1.54,-0.56 4.77,-0.56 z"/>
  <path fill="context-stroke" fill-opacity="context-fill-opacity" d="m 12.211,12.14 c -1.263,0.0 -2.315,0.0 -3.156,-0.0 -1.092,-0.01 -1.922,0.314 -2.657,0.905 a 6.041,6.041 0 0 0 -0.45,0.404 c -0.09,0.088 -0.362,0.367 -0.380,0.384 a 1,1 0 1 1 -1.414,-1.414 c 0.004,-0.004 0.286,-0.292 0.393,-0.397 0.199,-0.196 0.39,-0.368 0.598,-0.535 1.076,-0.866 2.344,-1.362 3.929,-1.347 0.839,0.008 1.894,0.009 3.166,0.003 L 11.093,8.763 a 1,1 0 1 1 1.536,-1.280 l 3.034,3.640 -3.034,3.64 a 1,1 0 0 1 -1.536,-1.28 l 1.119,-1.343 z"/>
</svg>
