<svg xmlns="http://www.w3.org/2000/svg" width="16" height="16" viewBox="0 0 16 16">
  <path fill="context-fill" fill-opacity="context-fill-opacity" d="m 3.66,11.23 0.9,1.13 c 0.9,1.03 -0.68,2.35 -1.53,1.28 l -2.83,-3.44 2.83,-3.44 c 0.86,-0.98 2.35,0.26 1.54,1.28 l -0.97,1.19 c 4.07,0 5.8,0.05 6.6,1.67 0.67,1.73 0.3,2.61 -2.03,4.18 -1.11,0.85 -2.28,-0.68 -1.3,-1.56 0.95,-0.74 1.78,-1.16 1.55,-1.73 -0.3,-0.56 -1.54,-0.56 -4.77,-0.56 z"/>
  <path fill="context-stroke" fill-opacity="context-fill-opacity" d="m 12.55,5.0931 -0.9,1.13 c -0.9,1.03 0.68,2.35 1.53,1.28 l 2.83,-3.44 -2.83,-3.440 c -0.86,-0.98 -2.35,0.26 -1.54,1.28 l 0.97,1.19 c -4.07,0 -5.80,0.05 -6.60,1.67 -0.67,1.73 -0.3,2.61 2.03,4.18 1.11,0.85 2.28,-0.68 1.3,-1.56 -0.95,-0.74 -1.78,-1.16 -1.55,-1.73 0.3,-0.56 1.54,-0.56 4.77,-0.56 z"/>
</svg>
