<svg xmlns="http://www.w3.org/2000/svg" width="256" height="256" viewBox="0 0 16 16">
  <path fill="context-fill" fill-opacity="context-fill-opacity" d="m 12.545,8.798 h -1.077 c -1.03,0 -1.797,-0.128 -2.491,0.451 -0.299,0.246 -0.318,0.236 -0.5893,0.523 -0.890,0.939 -2.229,-0.473 -1.320,-1.395 0.281,-0.324 0.459,-0.393 0.740,-0.658 1.002,-0.843 2.191,-0.902 3.680,-0.882 h 1.086 l -0.88,-1.1578 c -0.937,-1.010 0.646,-2.393 1.432,-1.255 l 2.65,3.374 -2.65,3.374 c -0.805,0.883 -2.116,-0.265 -1.432,-1.255 z"/>
  <path fill="context-fill" fill-opacity="context-fill-opacity" d="M 7.113,4.505 6.264,5.536 C 5.415,6.475 6.906,7.678 7.708,6.703 L 10.377,3.566 7.708,0.430 C 6.896,-0.463 5.491,0.667 6.255,1.597 l 0.915,1.0849 c -3.839,0 -5.471,0.046 -6.226,1.523 C 0.312,5.782 0.661,6.584 2.859,8.015 3.906,8.790 5.010,7.395 4.085,6.593 3.189,5.918 2.406,5.536 2.623,5.0159 2.906,4.505 4.076,4.505 7.123,4.505 Z"/>
  <path fill="context-fill" fill-opacity="context-fill-opacity" d="m 5.076,12.347 0.834,1.008 c 0.834,0.919 -0.630,2.096 -1.417,1.142 L 1.872,11.429 4.493,8.360 C 5.290,7.486 6.670,8.592 5.919,9.502 L 5.021,10.563 c 3.770,0 5.372,0.045 6.113,1.490 0.621,1.543 0.278,2.328 -1.880,3.729 C 8.226,16.540 7.142,15.175 8.050,14.390 8.930,13.730 9.699,13.355 9.486,12.847 9.208,12.347 8.059,12.347 5.067,12.347 Z"/>
</svg>
